<svg width="32" height="32" viewBox="0 0 32 32" fill="none" xmlns="http://www.w3.org/2000/svg">
<path fill-rule="evenodd" clip-rule="evenodd" d="M3.89739 19.1235V19.0216L3.87171 18.8939L3.84604 18.7666L3.82055 18.5881L3.79488 18.4097L3.7692 18.2056L3.74353 18.0015L3.71786 17.823L3.69237 17.6444L3.66669 17.4916L3.64102 17.3895V17.2875L3.58967 17.109V16.9306L3.56418 16.7776L3.53851 16.6501V16.4969L3.51284 16.3696H3.48716L3.46149 16.5226L3.436 16.6754L3.38465 16.8285L3.33331 17.007L3.28214 17.1857V17.2111L3.25647 17.2875L3.2308 17.3895L3.17945 17.5171L3.12829 17.6957L3.07694 17.8739L2.99992 18.0526L2.94876 18.2567L2.89741 18.4352L2.82058 18.6134L2.76923 18.7921L2.74356 18.9198L2.69239 19.0216L2.66672 19.098V19.1235H1.92311V19.098L1.89744 19.0216L1.87177 18.9198L1.82042 18.7666L1.76926 18.5881L1.69224 18.4097L1.56405 18.0271L1.51271 17.8485L1.46154 17.6957L1.41038 17.5425L1.35903 17.4407V17.3639L1.33336 17.3384L1.30769 17.1857L1.25634 17.0581L1.1795 16.7776L1.15383 16.6244L1.10248 16.4969V16.3696H1.07681V16.5226L1.05132 16.7012L1.02565 16.854V17.007L0.999974 17.1857L0.974301 17.3384V17.3639L0.948628 17.4661V17.5935L0.923137 17.7466L0.897464 17.9253L0.871791 18.129L0.846118 18.3331L0.820445 18.5372L0.794954 18.7157L0.769281 18.9962V19.098L0.743608 19.1235H0L0.589752 15.2729H1.46154V15.2985L1.48722 15.3751L1.53856 15.477L1.58973 15.6045L1.64107 15.7831L1.76926 16.1655L1.87177 16.548L1.94878 16.7265L1.99995 16.9052L2.10246 17.2111V17.2366L2.1538 17.4152L2.20515 17.568L2.25631 17.7212L2.28217 17.8994L2.33333 18.0526L2.38468 17.8994L2.41035 17.7212L2.46152 17.568L2.51286 17.4152L2.56403 17.262V17.2366L2.5897 17.1602L2.61537 17.0581L2.66672 16.9052L2.74356 16.752L2.7949 16.548L2.84607 16.3696L2.92309 16.1655L2.99992 15.9614L3.05127 15.7831L3.10243 15.6299L3.15396 15.477L3.17945 15.3751L3.20512 15.2985L3.2308 15.2729H4.10259L4.69234 19.1235H3.89739ZM6.53843 18.5372V19.1748H6.61527L6.74364 19.1489H6.84614L6.97433 19.098L7.07684 19.0726L7.17953 19.0216L7.28204 18.9707L7.38455 18.8939L7.46157 18.8175L7.56408 18.7411L7.61543 18.6648L7.69226 18.5625L7.7691 18.4608L7.82045 18.3584L7.84612 18.2567L7.89747 18.129L7.92314 18.0015L7.94863 17.8739L7.9743 17.7466V17.4661L7.94863 17.3384L7.92314 17.1857L7.89747 17.0581L7.87179 16.9306L7.82045 16.8285L7.7691 16.7265L7.69226 16.6501L7.64092 16.548L7.56408 16.4969L7.48724 16.4205L7.38455 16.3696L7.30771 16.3185L7.20502 16.2675L7.10251 16.2421L6.97433 16.191H6.87182L6.74364 16.1655H6.53843V16.8029H6.69229L6.82047 16.854L6.92298 16.9052L7 16.9817L7.07684 17.0834L7.12818 17.1857L7.15386 17.3384L7.17953 17.4916L7.20502 17.6701L7.17953 17.823L7.15386 17.9762L7.12818 18.1035L7.07684 18.2311L7 18.3331L6.94866 18.4097L6.84614 18.4608L6.74364 18.5116L6.66662 18.5372H6.53843Z" fill="#5B9AF8"/>
<path fill-rule="evenodd" clip-rule="evenodd" d="M6.53831 16.8034V16.166H6.48696L6.35878 16.1915L6.2306 16.2171L6.10241 16.2426L5.9999 16.2935L5.89739 16.3446L5.79488 16.3954L5.69219 16.472L5.61517 16.5231L5.53833 16.5993L5.4615 16.7017L5.38448 16.7781L5.33313 16.8798L5.28197 16.9822L5.23062 17.1095L5.20495 17.2116L5.15379 17.3389L5.12793 17.4666V18.0276L5.15379 18.1808L5.17946 18.3081L5.23062 18.4102L5.28197 18.5377L5.33313 18.6139L5.38448 18.7162L5.4615 18.7926L5.53833 18.8691L5.61517 18.9457L5.69219 18.9967L5.79488 19.0476L5.89739 19.0985L5.9999 19.124L6.10241 19.1494L6.2306 19.1753H6.53831V18.5377H6.4358L6.30762 18.5121L6.20492 18.4613L6.12809 18.4102L6.05125 18.3336L5.9999 18.2316L5.94856 18.104L5.92307 17.9767L5.89739 17.8235V17.4666L5.94856 17.3135L5.9999 17.1607L6.05125 17.0586L6.15376 16.9566L6.2306 16.8798L6.33329 16.829L6.4358 16.8034H6.53831ZM13.2306 18.5886V19.1753H13.6665L13.8203 19.1494L13.9742 19.124L14.1024 19.0731L14.2562 19.0476L14.3844 18.9967V18.8435L14.3331 18.563V18.4102L14.1792 18.4613L14.051 18.5121L13.8974 18.563L13.769 18.5886H13.2306ZM13.2306 17.288V17.7981H14.4613L14.4869 17.6706V17.2116L14.4613 17.0839L14.4358 16.9822L14.3844 16.8798L14.3588 16.7781L14.3074 16.6759L14.2306 16.574L14.1792 16.4974L14.1024 16.421L13.9999 16.3701L13.8974 16.2935L13.7947 16.268L13.6665 16.2171L13.564 16.1915L13.4101 16.166H13.2306V16.727L13.2563 16.7017L13.4101 16.727L13.5126 16.7781L13.6151 16.8545L13.6922 16.9822L13.7435 17.1095V17.288H13.2306Z" fill="#5B9AF8"/>
<path fill-rule="evenodd" clip-rule="evenodd" d="M13.2305 16.7264V16.1654H13.1537L13.0253 16.1909L12.8971 16.2165L12.769 16.242L12.6664 16.2929L12.5638 16.3439L12.4612 16.4204L12.3844 16.4714L12.3076 16.5478L12.2305 16.65L12.1535 16.7264L12.1024 16.8283L12.051 16.956L11.9999 17.058L11.9742 17.1856L11.9483 17.3129L11.9228 17.4406V18.0014L11.9483 18.1289L11.9742 18.2566L11.9999 18.3583L12.051 18.4606L12.1024 18.5624L12.1535 18.6647L12.2049 18.741L12.2817 18.8174L12.3587 18.8938L12.4358 18.945L12.5383 18.9961L12.6408 19.047L12.7435 19.0979L12.846 19.1234L12.9742 19.1488L13.0767 19.1746H13.2305V18.5879L13.1794 18.5624L13.051 18.537L12.9485 18.4606L12.8716 18.4096L12.7946 18.3074L12.7435 18.2055L12.6919 18.0778L12.6664 17.9505V17.7975H13.2305V17.2874H12.6919L12.7178 17.1088L12.769 16.9815L12.8716 16.8792L12.9742 16.7775L13.1023 16.7264H13.2305ZM14.9228 16.7519L14.8716 16.6753L14.8459 16.5987V16.4204L14.8716 16.3439L14.8973 16.2673H15.0509L15.1793 16.242H15.333L15.487 16.2165H16.0511V16.3948L16.0254 16.5987L15.9998 16.8028L16.0511 16.701L16.1279 16.5734L16.2048 16.4714L16.282 16.3695L16.3843 16.2929L16.4872 16.242L16.6152 16.1909L16.7692 16.1654H16.9227V16.2673L16.8972 16.5225V16.9051L16.7692 16.8792H16.6663L16.564 16.9051L16.4611 16.9305L16.3843 16.9815L16.3331 17.0324L16.2563 17.1088L16.2048 17.211L16.1536 17.3383L16.1279 17.4659L16.1023 17.5934V17.772L16.0766 17.9505V19.1234H15.3587V16.8028L15.2048 16.7775L15.0766 16.7519H14.9228ZM20.0255 19.1746H19.7948L19.5896 19.1488L19.4099 19.1234V18.6647L19.4356 18.5115L19.5639 18.5624L19.7176 18.5879H19.8971L20.0512 18.6133L20.256 18.5879L20.4101 18.5115L20.4867 18.4351L20.5384 18.3074L20.5124 18.231L20.4867 18.1546L20.4612 18.1034L20.4101 18.0778L20.3332 18.0269L20.2819 18.0014L20.2049 17.9505L20.1023 17.9252L20.0255 17.8993L19.9483 17.8737L19.846 17.8229L19.7691 17.7975L19.6919 17.7464L19.6151 17.6956L19.5383 17.6188L19.4612 17.5424L19.4099 17.4406L19.3844 17.3383L19.3587 17.2365V16.9815L19.3844 16.8792L19.4099 16.7775L19.4612 16.6753L19.5128 16.5987L19.5639 16.5225L19.6664 16.4459L19.7433 16.3695L19.8716 16.3184L19.974 16.2673L20.1023 16.2165L20.256 16.1909L20.4101 16.1654H20.7691L20.9485 16.1909L21.1023 16.2165V16.8028L20.9228 16.7775L20.7433 16.7264H20.5639L20.3587 16.7519L20.2303 16.8028L20.1535 16.9051L20.128 17.0324V17.0833L20.1535 17.1601L20.2049 17.211L20.256 17.2365L20.3075 17.2874L20.3844 17.3129L20.4612 17.3383L20.5384 17.3893L20.6407 17.4151L20.7176 17.4406L20.8205 17.4915L20.8971 17.5424L20.9739 17.5934L21.0512 17.6443L21.128 17.7211L21.2048 17.7975L21.256 17.8737L21.282 17.9761L21.3075 18.1034V18.333L21.282 18.4351L21.256 18.537L21.2048 18.6388L21.1537 18.7156L21.0768 18.8174L20.9996 18.8938L20.9228 18.945L20.8205 18.9961L20.7176 19.047L20.5896 19.0979L20.4612 19.1488H20.3075L20.1792 19.1746H20.0255ZM9.43565 16.2165V16.5734L9.41015 16.7519L9.48699 16.65L9.56383 16.5225L9.64085 16.4459L9.74336 16.3695L9.84587 16.2929L9.97423 16.242L10.1024 16.1909L10.2561 16.1654H10.5638L10.692 16.1909L10.8204 16.242L10.9229 16.2929L10.9997 16.3695L11.0767 16.4459L11.1536 16.5225L11.1792 16.6243L11.2306 16.7264L11.2562 16.8539V19.1234H10.5383V17.2619L10.5126 17.1088L10.487 16.9815L10.4099 16.8792L10.3074 16.8028L10.1793 16.7775L10.0511 16.8028L9.94856 16.8283L9.84587 16.9051L9.76903 16.9815L9.69201 17.058L9.61517 17.1856L9.56383 17.2874L9.51266 17.4406V17.5679L9.48699 17.7211V19.1234H8.74338V16.8028L8.6152 16.7775L8.46134 16.7519H8.30749L8.28182 16.6753L8.25614 16.5987L8.23047 16.4968L8.25614 16.4204L8.28182 16.3439L8.30749 16.2673H8.43567L8.58953 16.242H8.74338L8.87157 16.2165H9.43565ZM18.3076 15.8594L18.1536 15.8338L18.0256 15.7829L17.9484 15.681L17.8715 15.5533L17.846 15.4003L17.8715 15.2728L17.9484 15.1453L18.0256 15.0434L18.1536 14.9923L18.3076 14.9668L18.4611 14.9923L18.5896 15.0434L18.692 15.1453L18.7431 15.2728L18.7692 15.4003L18.7431 15.5533L18.692 15.681L18.5896 15.7829L18.4611 15.8338L18.3076 15.8594ZM18.692 16.2165H18.1024L17.9484 16.242H17.7947L17.6408 16.2673H17.5128L17.4611 16.3439L17.4356 16.4204V16.5987L17.4611 16.6753L17.5128 16.7519H17.6663L17.8204 16.7775L17.9484 16.8028V19.1234H18.692V16.2165Z" fill="#5B9AF8"/>
<path fill-rule="evenodd" clip-rule="evenodd" d="M28.8971 10.8614L28.7943 10.7849L28.6663 10.683L28.5124 10.6064L28.3842 10.53L28.2304 10.4534L28.0763 10.4025L27.9227 10.3514L27.7431 10.3005L27.5895 10.275L27.4099 10.2239H27.2816L27.1279 10.1984H26.538L26.3586 10.2239L26.2048 10.2495L26.0511 10.275L25.897 10.3259L25.7432 10.377L25.5895 10.428L25.4355 10.4789L25.2814 10.5555L25.1534 10.6319L24.9996 10.7085L24.8716 10.7849L24.7175 10.8614L24.5895 10.9635L24.4355 11.0654L24.3075 11.1676L24.1791 11.2949L24.0766 11.397L23.9739 11.499L23.8459 11.6264L23.7687 11.7284L23.6662 11.8561L23.5639 11.9835L23.4867 12.0855L23.4099 12.213L23.333 12.3405L23.2558 12.4679L23.2047 12.5956L23.1278 12.7231L23.0766 12.8506L22.9994 13.0036L22.9483 13.1311L22.8971 13.2841L22.846 13.4371L22.8203 13.5901L22.7688 13.7431L22.7431 13.8706L22.7174 14.0236L22.6919 14.1767V14.4571L22.6662 14.5846V15.0181L22.6919 15.1712V15.2986L22.7174 15.4517L22.7431 15.6047L22.7688 15.7322L22.8203 15.8852L22.846 16.0382L22.8971 16.1657L22.9483 16.2932L22.9994 16.4206L23.051 16.5481L23.1023 16.6756L23.1535 16.8031L23.2303 16.9308L23.2819 17.0327L23.3587 17.1604L23.4355 17.2877L23.5124 17.3896L23.5894 17.4918L23.6662 17.5937L23.7687 17.6958L24.0251 18.0017L24.2046 18.1804L24.3843 18.3586L24.4867 18.4354L24.5895 18.5118L24.6919 18.5882L24.7947 18.665L24.8971 18.7412L24.9996 18.8177L25.1023 18.8687L25.2048 18.9453L25.3331 18.9964L25.6663 19.1749L25.7687 19.2258L25.897 19.2769L26.025 19.3278L26.1536 19.3531L26.2816 19.4042L26.41 19.4299L26.538 19.4554L26.6663 19.5063L26.7943 19.5318H26.9227L27.0507 19.5572L27.1791 19.5827H27.3074L27.4356 19.6083H27.9483L28.0763 19.5827H28.2047L28.3327 19.5572L28.4611 19.5318L28.5891 19.5063L28.7176 19.4808L28.846 19.4554L28.9995 19.4299L29.1278 19.3787L29.256 19.3531L29.3587 19.3022L29.4867 19.2513L29.6151 19.2005L29.7431 19.149L29.846 19.0728L29.974 19.0217L30.0763 18.9453L30.2048 18.8941L30.3072 18.8177L30.4099 18.7412L30.5124 18.665L30.6151 18.5882L30.7176 18.4863L30.8199 18.4099L30.9228 18.3077L31.0251 18.2313L31.1019 18.1292L31.2048 18.0272L31.3843 17.8231L31.4612 17.7214L31.538 17.6191L31.6152 17.5173L31.6919 17.3896L31.7432 17.2877L31.82 17.1604L31.8716 17.0327L31.9484 16.9054V16.8795L31.9739 16.8286V16.599L31.9484 16.5481L31.9227 16.4971V16.4462L31.8971 16.3951L31.8455 16.3698L31.82 16.3442L31.7944 16.3187L31.7687 16.2932L31.7175 16.2676H31.5892L31.5635 16.2932L31.538 16.3187L31.5123 16.3442L31.4868 16.3698L31.41 16.4971L31.3587 16.599L31.2816 16.7267L31.1791 16.8286L31.0251 17.0582L30.9228 17.1604L30.8456 17.2368L30.7432 17.3386L30.6407 17.4409L30.538 17.5173L30.4355 17.5937L30.3328 17.6958L30.2048 17.7723L30.0763 17.8487L29.974 17.8996L29.846 17.9763L29.7176 18.0272L29.5892 18.0781L29.4612 18.1292L29.3327 18.1804L29.2047 18.2313L29.0763 18.2568L28.9228 18.2822L28.7943 18.3333H28.6408L28.5124 18.3586H28.3842L28.2559 18.3841H27.8715L27.7431 18.3586H27.6151L27.4868 18.3333H27.3588L27.2304 18.3077L27.1022 18.2568L26.9739 18.2313L26.8459 18.2058L26.7175 18.1549L26.5895 18.1036L26.4611 18.0528L26.3331 18.0017L26.2302 17.9508L26.1022 17.8996L25.9996 17.8487L25.897 17.7723L25.7947 17.6958L25.6663 17.6446L25.5635 17.5682L25.4611 17.4918L25.3586 17.4153L25.2559 17.3386L25.1791 17.2368L25.0766 17.1604L24.9739 17.0582L24.8971 16.9563L24.7947 16.8542L24.7175 16.7522L24.5382 16.5481L24.4612 16.4462L24.3843 16.2932L24.2815 16.1657L24.2046 16.0382L24.1535 15.8852L24.0766 15.7322L24.0251 15.5791L23.9739 15.4517L23.9228 15.2986L23.8971 15.1456L23.8459 14.9926L23.8203 14.8396L23.7946 14.6866V14.4061L23.7687 14.2531L23.7946 14.1001V13.947L23.8203 13.794L23.8459 13.641L23.8714 13.4626L23.9228 13.3096L23.9739 13.1311L24.0251 12.9781L24.0766 12.7995L24.1535 12.6465L24.2303 12.4937L24.333 12.3405L24.4098 12.1876L24.5123 12.06L24.615 11.9325L24.7175 11.805L24.8202 11.6775L24.9227 11.5756L25.0511 11.4734L25.1791 11.3715L25.2303 11.3204L25.3075 11.2695L25.3586 11.244L25.4355 11.1929L25.4866 11.142L25.5635 11.1165L25.6152 11.0654L25.6918 11.0401L25.7687 10.989L25.8202 10.9635L25.897 10.938L25.9484 10.8869L26.0511 10.8614L26.1022 10.836L26.2048 10.8105L26.2816 10.7849L26.3586 10.7594L26.4354 10.7339H26.5123L26.5895 10.7085H26.6663L26.7432 10.683H26.8972L26.82 10.7085L26.7686 10.7339L26.692 10.7594L26.6407 10.7849L26.5634 10.8105L26.5123 10.836L26.4354 10.8869L26.3843 10.9126L26.3331 10.9635L26.2559 11.0146L26.2048 11.0401L26.1279 11.091L26.1022 11.1165L26.0511 11.1676L26.025 11.1929L25.9996 11.244L25.9484 11.2695L25.9227 11.3204L25.897 11.3459L25.8459 11.397L25.7432 11.5245L25.7175 11.5756L25.6407 11.703L25.5635 11.8305L25.4866 11.958L25.4355 12.111L25.3843 12.2385L25.3586 12.3915L25.3075 12.5445L25.2814 12.672L25.2559 12.825V13.3605L25.2814 13.641V13.7687L25.3075 13.8962L25.3586 14.0236L25.3843 14.1767L25.4355 14.3041L25.4866 14.4061L25.538 14.5336L25.5895 14.661L25.6407 14.7885L25.6918 14.8905L25.7687 15.0181L25.8459 15.1201L25.9227 15.2478L25.9996 15.3495L26.1791 15.5536L26.2816 15.63L26.3586 15.7322L26.4611 15.8341L26.5634 15.9107L26.692 16.0127L26.7943 16.0891L26.9227 16.1401L27.0252 16.2167L27.1536 16.2932L27.2816 16.3442L27.4099 16.3951L27.5379 16.4462L27.6663 16.4971L27.82 16.5481L27.974 16.5737L28.1279 16.6245L28.2815 16.6503H28.4356L28.5636 16.6756H29.1023L29.256 16.6503L29.4356 16.6245L29.5892 16.5737L29.7431 16.5481L29.8971 16.4971L30.0251 16.4206L30.1792 16.3698L30.3072 16.2932L30.4355 16.2167L30.5635 16.1401L30.6919 16.0637L30.7944 15.9616L30.9484 15.8596L31.0508 15.7322L31.1791 15.6047L31.2816 15.4517L31.3843 15.3242L31.4612 15.1967L31.538 15.0437L31.6152 14.8905L31.6664 14.763L31.7175 14.6102L31.7687 14.4571L31.7944 14.3041L31.8455 14.1001L31.8716 13.8962V13.2586L31.8455 13.1055V12.9525L31.7944 12.672L31.7175 12.3915L31.6919 12.264L31.6407 12.1366L31.5892 11.9835L31.538 11.8561L31.4868 11.703L31.4355 11.5756L31.3587 11.4481L31.2816 11.3204L31.2303 11.1929L31.1535 11.0654L31.0764 10.9635L30.9739 10.836L30.8971 10.7085L30.8199 10.6064L30.7176 10.5044L30.6407 10.4025L30.538 10.275L30.4355 10.1731L30.3328 10.0709L30.2303 9.96898L30.1023 9.89238L29.9996 9.79043L29.8971 9.68848L29.7688 9.61188L29.5124 9.43352L29.3844 9.35692L29.256 9.2805H29.2303L29.2047 9.25497H29.0508L29.0251 9.2805L28.9995 9.30585V9.38245L29.0251 9.40798V9.43352L29.0508 9.45887V9.4844L29.0763 9.50993H29.1023L29.1278 9.53547L29.1535 9.561L29.2815 9.63742L29.4099 9.71383L29.5379 9.79043L29.6664 9.89238L29.7944 9.96898L29.8971 10.0709L30.0251 10.1731L30.128 10.275L30.2303 10.377L30.3328 10.4789L30.4355 10.581L30.5124 10.683L30.6151 10.8105L30.6919 10.938L30.7687 11.0401L30.8456 11.1676L30.9228 11.2949L30.9996 11.4224L31.128 11.6775L31.1791 11.8305L31.2303 11.958L31.2816 12.0855L31.3071 12.2385L31.3587 12.366L31.3843 12.4937L31.41 12.6465L31.4355 12.7742V12.9272L31.4612 13.0547V13.335L31.4355 13.488V13.6665L31.41 13.8196L31.3587 13.9981L31.3071 14.1767L31.256 14.3297L31.1791 14.4825L31.1019 14.6357L30.9996 14.7885L30.8971 14.9417L30.7687 15.0692L30.6151 15.1967L30.4612 15.3242L30.3072 15.4261L30.128 15.5281L29.9483 15.63L29.7944 15.6813L29.6408 15.7066L29.4867 15.7575L29.3327 15.7832L29.1792 15.8088H28.6408L28.4611 15.7832L28.2815 15.7322L28.1024 15.6813L27.9227 15.63L27.82 15.6047L27.7431 15.5536L27.6406 15.5281L27.5636 15.4772L27.4611 15.4261L27.3843 15.3752L27.3074 15.3242L27.2047 15.2478L27.1279 15.1967L26.9739 15.0692L26.9227 14.9926L27.0764 15.0692L27.2047 15.1201L27.3588 15.1712L27.5379 15.222L27.692 15.2478L27.8458 15.2731H28.3072L28.4611 15.2478H28.6151L28.7431 15.1967L28.9228 15.1456L29.0763 15.0946L29.2047 15.0437L29.3587 14.9671L29.5379 14.8651L29.6919 14.763L29.846 14.6357L29.974 14.5082L30.1023 14.3806L30.2048 14.2275L30.3072 14.0745L30.4099 13.9215L30.4867 13.7687L30.538 13.6157L30.5892 13.4371L30.6407 13.2841L30.6664 13.1311L30.6919 12.9525V12.6465L30.6664 12.4937L30.6407 12.3151L30.6151 12.1619L30.5892 12.0091L30.538 11.8561L30.4867 11.7284L30.4355 11.5756L30.3587 11.4481L30.3072 11.3204L30.2303 11.1929L30.1535 11.0654L30.0763 10.938L29.9996 10.836L29.8971 10.7085L29.7176 10.5044L29.6408 10.4025L29.5379 10.3005L29.4356 10.1984L29.3072 10.0965L29.2047 10.02L29.1023 9.91792L28.974 9.8415L28.846 9.7649L28.7176 9.68848L28.6151 9.61188L28.4611 9.53547L28.3327 9.45887L28.2047 9.40798L28.0763 9.35692L27.9483 9.30585L27.82 9.25497L27.692 9.2039L27.5379 9.17837L27.4099 9.12748L27.2559 9.10195L27.1279 9.07642L26.9739 9.05088H26.8459L26.7175 9.02553H26.5634L26.4354 9H25.7687L25.6407 9.02553H25.5123L25.3586 9.05088L25.2303 9.07642H25.1023L24.9739 9.12748H24.8459L24.6919 9.17837L24.5639 9.2039L24.4355 9.25497L24.3075 9.2805L24.1791 9.33138L24.0251 9.38245L23.8971 9.43352L23.7687 9.4844L23.6407 9.53547L23.5124 9.58635L23.3844 9.66295L23.2819 9.71383L23.1535 9.79043L23.051 9.8415L22.9483 9.91792L22.8203 9.99451L22.7174 10.0709L22.6151 10.1475L22.5122 10.2239L22.3842 10.3005L22.2819 10.377L22.179 10.4789L22.0767 10.5555L21.8971 10.7594L21.7946 10.836L21.6919 10.938L21.6151 11.0401L21.5122 11.142L21.4354 11.244L21.3587 11.3459L21.2819 11.4481L21.0767 11.7541L20.9995 11.8816L20.9483 11.9835L20.8715 12.0855L20.8203 12.213L20.769 12.3151L20.6918 12.4426L20.6406 12.5701L20.5895 12.6976L20.5383 12.825L20.5123 12.9525L20.4611 13.08L20.4354 13.2075L20.3843 13.335L20.3586 13.4626V13.641L20.3843 13.6921L20.4354 13.7431L20.4866 13.7687L20.5383 13.8196L20.5895 13.8451L20.6663 13.8706H20.9227L21.0254 13.8451L21.1022 13.8196L21.179 13.794L21.2819 13.7687L21.3331 13.7176L21.4099 13.6921L21.4611 13.641L21.5122 13.5901L21.5639 13.5391L21.6151 13.4626L21.6406 13.4116V13.3605L21.6663 13.2075L21.6919 13.08L21.7431 12.9525L21.7686 12.825L21.7946 12.6976L21.8458 12.5701L21.8971 12.4426L21.9483 12.3151L21.9995 12.1876L22.051 12.0855L22.1278 11.958L22.179 11.8561L22.2558 11.7284L22.3074 11.6264L22.3842 11.5245L22.461 11.4224L22.5382 11.3204L22.6151 11.2185L22.7946 11.0146L22.8971 10.9126L22.9994 10.8105L23.1023 10.7085L23.1792 10.6319L23.3075 10.53L23.4099 10.4534L23.5124 10.377L23.7176 10.2239L23.8459 10.1475L23.9483 10.0965L24.2046 9.94345L24.333 9.89238L24.4612 9.8415L24.5895 9.7649L24.7175 9.73955L24.8459 9.68848L24.9739 9.63742L25.1023 9.61188L25.2559 9.561L25.3843 9.53547L25.5123 9.50993L25.6407 9.4844L25.7947 9.45887H25.9227L26.0511 9.43352H26.2048L26.3331 9.40798H26.4868L26.6152 9.43352H26.8972L27.0252 9.45887L27.2047 9.4844L27.3588 9.50993L27.5123 9.53547L27.6663 9.58635L27.82 9.63742L27.974 9.68848L28.1024 9.73955L28.2304 9.79043L28.3842 9.86703L28.5124 9.94345L28.6151 10.02L28.7431 10.0965L28.8715 10.1731L28.974 10.2495L29.1023 10.3514L29.2047 10.4534L29.3072 10.5555L29.4099 10.6575L29.4867 10.7594L29.5892 10.8614L29.6664 10.9635L29.7431 11.091L29.8199 11.2185L29.8971 11.3459L29.9483 11.4734L30.0251 11.6009L30.0763 11.7284L30.128 11.8816L30.1535 12.0091L30.1792 12.1366L30.2048 12.264L30.2303 12.3915V12.6465L30.2048 12.7742V12.9016L30.1535 13.0291L30.128 13.1566L30.0763 13.2841L30.0251 13.4116L29.9483 13.5391L29.8714 13.6665L29.7944 13.7687L29.6919 13.8706L29.5892 13.9726L29.4867 14.0745L29.3587 14.1767L29.2303 14.2531L29.0763 14.3041L28.9228 14.3806L28.7688 14.4316L28.6151 14.4571L28.4611 14.4825L28.3327 14.5082H28.0507L27.9227 14.4825L27.7688 14.4571L27.6406 14.4316L27.4868 14.3806L27.3588 14.3297L27.2304 14.2531L27.1022 14.1767L26.9739 14.0745L26.8459 13.9981L26.7175 13.8706L26.6152 13.7687L26.5123 13.6665L26.4354 13.5391L26.3331 13.4116L26.2816 13.2841L26.2302 13.1566L26.1791 13.0036L26.1536 12.8506L26.1279 12.672V12.4171L26.1536 12.2896L26.1791 12.213L26.2048 12.1366L26.2302 12.0855L26.2816 12.0346L26.3074 11.958L26.3586 11.8561L26.4354 11.7284L26.538 11.6009L26.6407 11.499L26.7432 11.397L26.8459 11.3204L26.9995 11.2185L27.1536 11.1676L27.3074 11.091L27.4868 11.0654L27.6406 11.0146H28.1535L28.3327 11.0654L28.5379 11.1165L28.7176 11.2185H28.7431L28.7688 11.244H28.9228L28.9483 11.2185H28.974L28.9995 11.1929V11.1676L29.0251 11.142V11.0146L28.9995 10.989V10.9635L28.974 10.938L28.9483 10.9126L28.9228 10.8869L28.8971 10.8614ZM14.974 23H14.7176L14.5893 22.9744V22.7195L14.6149 22.6173L14.7433 22.6427L14.8715 22.6686L14.9997 22.6941L15.1792 22.6686L15.3074 22.5665L15.3585 22.439L15.3329 22.3624L15.3074 22.3113L15.2303 22.2604L15.1535 22.2095L15.0765 22.1587L14.974 22.1328L14.8971 22.1072L14.7945 22.0563L14.7176 22.0055L14.6408 21.929L14.5893 21.8523L14.5381 21.725V21.47L14.5893 21.3677L14.6408 21.2659L14.7433 21.1895L14.8458 21.1127L14.9483 21.0618L15.1022 21.0363L15.2817 21.0109L15.3844 21.0363H15.5126L15.6151 21.0618V21.2913L15.5894 21.3677L15.4869 21.3423H15.3585L15.256 21.3168L15.0765 21.3677L14.974 21.4445L14.9226 21.5718L14.9483 21.6482L14.974 21.6994L15.0508 21.7505L15.1278 21.7758L15.2047 21.8269L15.2817 21.8523L15.3844 21.9035L15.4869 21.929L15.5637 22.0055L15.6408 22.0563L15.6919 22.1587L15.7433 22.2604V22.5154L15.6919 22.6427L15.6408 22.745L15.5381 22.8214L15.4356 22.8978L15.3074 22.9744L15.1535 23H14.974ZM17.2562 22.6686V23H17.333L17.461 22.9744L17.5894 22.9491L17.6919 22.8978L17.7946 22.8214L17.8714 22.745L17.9739 22.6427L18.0254 22.5409L18.1023 22.4136L18.1278 22.286L18.1534 22.1587V21.8269L18.1278 21.6994L18.1023 21.5464L18.0511 21.4445L17.9739 21.3423L17.9226 21.2659L17.8202 21.1895L17.7434 21.1127L17.6407 21.0874L17.5127 21.0363H17.4098L17.2818 21.0109H17.2562V21.3677H17.3842L17.4867 21.4191L17.5894 21.47L17.6662 21.5718L17.7174 21.6994L17.7434 21.8523L17.7691 22.0055L17.7434 22.2095L17.6919 22.3624L17.6407 22.4645L17.5639 22.5665L17.461 22.6173L17.3587 22.6686H17.2562Z" fill="#5B9AF8"/>
<path fill-rule="evenodd" clip-rule="evenodd" d="M17.2561 21.3675V21.0107L17.1535 21.0361L17.0255 21.0616L16.9226 21.0872L16.7946 21.138L16.6919 21.2148L16.615 21.2911L16.5382 21.393L16.461 21.4951L16.4098 21.6226L16.3587 21.7503L16.333 21.8776V22.1838L16.3587 22.3111L16.3842 22.4388L16.4353 22.5663L16.487 22.6684L16.5639 22.7448L16.6405 22.8212L16.7174 22.8976L16.8202 22.9489L16.9482 22.9742L17.0766 22.9998H17.2561V22.6684H17.1023L16.9998 22.6171L16.8971 22.5407L16.8202 22.4388L16.7691 22.3111L16.7434 22.1585L16.7174 22.0053L16.7434 21.8267L16.7946 21.6739L16.8457 21.5716L16.9226 21.4698L17.0255 21.4189L17.1278 21.3675L17.2303 21.3421L17.2561 21.3675ZM18.897 22.9742V21.0616H19.2818V22.6425H19.897V22.9742H18.897ZM21.2559 22.9998H21.0767L20.9227 22.9742L20.7947 22.9234L20.6918 22.8466L20.6151 22.7448L20.5638 22.6425L20.5383 22.5407L20.5123 22.4388V21.0616H20.8715V22.2858L20.897 22.4134L20.9227 22.5407L20.9995 22.6171L21.1279 22.6939H21.4354L21.5639 22.6425L21.6406 22.5663L21.6663 22.4388L21.6919 22.2602V21.0616H22.0767V22.2347L22.051 22.3875L22.0255 22.5152L21.9738 22.6425L21.9226 22.7448L21.8458 22.8212L21.7686 22.8976L21.6663 22.9489L21.5383 22.9742L21.4099 22.9998H21.2559ZM23.615 21.3675V22.9742H23.2303V21.3675H22.7174V21.0616H24.1023V21.3675H23.615ZM24.8202 21.0616H25.2048V22.9742H24.8202V21.0616ZM26.82 22.6684V22.9998H26.9227L27.0507 22.9742L27.1536 22.9489L27.2559 22.8976L27.3588 22.8212L27.4611 22.7448L27.5379 22.6425L27.6151 22.5407L27.6663 22.4134L27.692 22.2858L27.7175 22.1585L27.7431 21.9797L27.7175 21.8267V21.6992L27.6663 21.5462L27.6151 21.4443L27.5636 21.3421L27.4868 21.2657L27.4099 21.1893L27.3074 21.1125L27.2047 21.0872L27.1022 21.0361H26.9738L26.8458 21.0107H26.82V21.3675H26.9484L27.0764 21.4189L27.1536 21.4698L27.2304 21.5716L27.2816 21.6992L27.3331 21.8521V22.0053L27.3074 22.2093L27.2816 22.3622L27.2047 22.4643L27.1279 22.5663L27.0252 22.6171L26.9227 22.6684H26.82Z" fill="#5B9AF8"/>
<path fill-rule="evenodd" clip-rule="evenodd" d="M26.8204 21.3675V21.0107L26.7179 21.0361L26.6156 21.0616L26.4872 21.0872L26.3847 21.138L26.282 21.2148L26.1795 21.2911L26.1027 21.393L26.0255 21.4951L25.9743 21.6226L25.9488 21.7503L25.9231 21.8776L25.8975 22.0306V22.1838L25.9231 22.3111L25.9488 22.4388L26 22.5663L26.0515 22.6684L26.1283 22.7448L26.2052 22.8212L26.3079 22.8976L26.4104 22.9489L26.5127 22.9742L26.6411 22.9998H26.8204V22.6684H26.6667L26.5639 22.6171L26.4615 22.5407L26.3847 22.4388L26.3335 22.3111L26.3079 22.1585V22.0053L26.3335 21.8267L26.359 21.6739L26.4359 21.5716L26.5127 21.4698L26.5899 21.4189L26.7179 21.3675L26.8204 21.3421V21.3675ZM29.564 22.9742L29.5383 22.9489L29.4871 22.8212L29.3848 22.6684L29.2819 22.4898L29.1796 22.3111L29.1028 22.1585L29.0256 22.0561L28.9999 22.0053L28.9232 21.8521L28.8464 21.7248L28.7947 21.5971V21.9288L28.8204 22.107V22.9742H28.436V21.0616H28.9232L28.9744 21.1125L29.0512 21.2402L29.1539 21.4189L29.2564 21.5971L29.3591 21.8012L29.436 21.9288L29.4616 21.9797L29.564 22.1326L29.6412 22.2858L29.718 22.4388L29.6923 22.2858V21.0616H30.0512V22.9742H29.564ZM31.2307 22.9998H30.9744L30.846 22.9742V22.7193L30.872 22.6171L30.9744 22.6425L31.1284 22.6684L31.2564 22.6939L31.4359 22.6684L31.5639 22.5663L31.5896 22.4388V22.3622L31.5639 22.3111L31.4873 22.2602L31.4104 22.2093L31.3332 22.1585L31.2307 22.1326L31.1539 22.107L31.0512 22.0561L30.9744 22.0053L30.8975 21.9288L30.846 21.8521L30.7948 21.7248V21.4698L30.846 21.3675L30.8975 21.2657L30.9744 21.1893L31.1024 21.1125L31.2052 21.0616L31.3591 21.0361L31.5384 21.0107L31.6411 21.0361H31.7691L31.872 21.0616V21.2911L31.846 21.3675L31.7436 21.3421H31.6411L31.5128 21.3166L31.3332 21.3675L31.2307 21.4443L31.1796 21.5716L31.2052 21.648L31.2307 21.6992L31.3076 21.7503L31.3848 21.7756L31.4616 21.8267L31.5384 21.8521L31.6411 21.9033L31.7436 21.9288L31.8205 22.0053L31.8975 22.0561L31.9488 22.1585L32 22.2602V22.5152L31.9488 22.6425L31.8975 22.7448L31.7948 22.8212L31.6923 22.8976L31.5639 22.9742L31.4104 22.9998H31.2307Z" fill="#5B9AF8"/>
</svg>
