<svg xmlns="http://www.w3.org/2000/svg" width="54" height="18" viewBox="0 0 54 18" fill="none">
  <path fill-rule="evenodd" clip-rule="evenodd" d="M6.58192 17.1788V17.0058L6.53856 16.7892L6.4952 16.5732L6.45215 16.2702L6.4088 15.9676L6.36544 15.6213L6.32208 15.275L6.27873 14.9721L6.23568 14.6691L6.19232 14.4098L6.14896 14.2365V14.0635L6.06225 13.7605V13.4579L6.0192 13.1982L5.97584 12.9819V12.722L5.93249 12.506H5.88913L5.84577 12.7656L5.80273 13.0249L5.71601 13.2846L5.6293 13.5875L5.54289 13.8908V13.9338L5.49954 14.0635L5.45618 14.2365L5.36947 14.4531L5.28306 14.7561L5.19635 15.0584L5.06628 15.3617L4.97987 15.708L4.89316 16.0109L4.7634 16.3133L4.67668 16.6165L4.63333 16.8331L4.54692 17.0058L4.50356 17.1355V17.1788H3.24776V17.1355L3.2044 17.0058L3.16104 16.8331L3.07433 16.5732L2.98792 16.2702L2.85785 15.9676L2.64138 15.3183L2.55466 15.0154L2.46826 14.7561L2.38185 14.4961L2.29514 14.3234V14.1932L2.25178 14.1498L2.20842 13.8908L2.12171 13.6742L1.99195 13.1982L1.94859 12.9383L1.86188 12.722V12.506H1.81852V12.7656L1.77547 13.0686L1.73212 13.3279V13.5875L1.68876 13.8908L1.6454 14.1498V14.1932L1.60205 14.3664V14.5828L1.559 14.8424L1.51564 15.1457L1.47228 15.4913L1.42893 15.8376L1.38557 16.1839L1.34252 16.4869L1.29916 16.9628V17.1355L1.25581 17.1788H0L0.995974 10.6452H2.46826V10.6885L2.51161 10.8185L2.59833 10.9915L2.68473 11.2078L2.77145 11.5108L2.98792 12.1597L3.16104 12.8086L3.29111 13.1116L3.37752 13.4149L3.55064 13.9338V13.9771L3.63735 14.2801L3.72406 14.5394L3.81047 14.7994L3.85413 15.1017L3.94054 15.3617L4.02725 15.1017L4.07061 14.7994L4.15702 14.5394L4.24373 14.2801L4.33014 14.0202V13.9771L4.37349 13.8475L4.41685 13.6742L4.50356 13.4149L4.63333 13.1549L4.72004 12.8086L4.80644 12.506L4.93651 12.1597L5.06628 11.8134L5.15299 11.5108L5.2394 11.2508L5.32642 10.9915L5.36947 10.8185L5.41282 10.6885L5.45618 10.6452H6.92846L7.92444 17.1788H6.58192ZM11.0421 16.1839V17.2658H11.1719L11.3887 17.2218H11.5618L11.7783 17.1355L11.9514 17.0925L12.1248 17.0058L12.2979 16.9195L12.471 16.7892L12.6011 16.6595L12.7742 16.5299L12.8609 16.4005L12.9907 16.2269L13.1205 16.0542L13.2072 15.8806L13.2505 15.708L13.3373 15.4913L13.3806 15.275L13.4237 15.0584L13.467 14.8424V14.3664L13.4237 14.1498L13.3806 13.8908L13.3373 13.6742L13.2939 13.4579L13.2072 13.2846L13.1205 13.1116L12.9907 12.9819L12.904 12.8086L12.7742 12.722L12.6445 12.5923L12.471 12.506L12.3413 12.4193L12.1679 12.3327L11.9947 12.2897L11.7783 12.203H11.6051L11.3887 12.1597H11.0421V13.2413H11.302L11.5184 13.3279L11.6916 13.4149L11.8216 13.5445L11.9514 13.7172L12.0381 13.8908L12.0815 14.1498L12.1248 14.4098L12.1679 14.7127L12.1248 14.9721L12.0815 15.232L12.0381 15.448L11.9514 15.6646L11.8216 15.8376L11.7349 15.9676L11.5618 16.0542L11.3887 16.1406L11.2586 16.1839H11.0421Z" fill="#0C0C0C"/>
  <path fill-rule="evenodd" clip-rule="evenodd" d="M11.0425 13.2407V12.1591H10.9558L10.7393 12.2024L10.5228 12.2458L10.3064 12.2891L10.1332 12.3754L9.96012 12.4621L9.787 12.5484L9.61357 12.6784L9.4835 12.765L9.35374 12.8944L9.22397 13.068L9.0939 13.1977L9.00719 13.3703L8.92078 13.5439L8.83407 13.76L8.79071 13.9332L8.70431 14.1493L8.66064 14.3659V15.3178L8.70431 15.5777L8.74767 15.7937L8.83407 15.967L8.92078 16.1833L9.00719 16.3127L9.0939 16.4863L9.22397 16.6159L9.35374 16.7456L9.4835 16.8756L9.61357 16.9622L9.787 17.0486L9.96012 17.1349L10.1332 17.1782L10.3064 17.2213L10.5228 17.2652H11.0425V16.1833H10.8694L10.6529 16.14L10.4795 16.0537L10.3497 15.967L10.2199 15.837L10.1332 15.6641L10.0465 15.4474L10.0035 15.2314L9.96012 14.9715V14.3659L10.0465 14.1062L10.1332 13.8469L10.2199 13.6736L10.3931 13.5006L10.5228 13.3703L10.6963 13.284L10.8694 13.2407H11.0425ZM22.3444 16.2697V17.2652H23.0806L23.3404 17.2213L23.6003 17.1782L23.8167 17.0919L24.0766 17.0486L24.293 16.9622V16.7023L24.2063 16.2263V15.967L23.9465 16.0537L23.73 16.14L23.4705 16.2263L23.2537 16.2697H22.3444ZM22.3444 14.0629V14.9285H24.4228L24.4662 14.7122V13.9332L24.4228 13.7166L24.3798 13.5439L24.293 13.3703L24.2497 13.1977L24.163 13.0244L24.0332 12.8514L23.9465 12.7214L23.8167 12.5917L23.6436 12.5054L23.4705 12.3754L23.2971 12.3321L23.0806 12.2458L22.9075 12.2024L22.6476 12.1591H22.3444V13.111L22.3878 13.068L22.6476 13.111L22.8208 13.1977L22.9939 13.3273L23.1239 13.5439L23.2107 13.76V14.0629H22.3444Z" fill="#0C0C0C"/>
  <path fill-rule="evenodd" clip-rule="evenodd" d="M22.343 13.1098V12.1579H22.2133L21.9965 12.2012L21.78 12.2446L21.5635 12.2879L21.3904 12.3742L21.217 12.4609L21.0439 12.5905L20.9141 12.6772L20.7843 12.8068L20.6543 12.9801L20.5242 13.1098L20.4378 13.2828L20.3511 13.4994L20.2647 13.6724L20.2213 13.889L20.1777 14.105L20.1346 14.3216V15.2732L20.1777 15.4895L20.2213 15.7062L20.2647 15.8788L20.3511 16.0525L20.4378 16.2251L20.5242 16.3987L20.6109 16.5281L20.7407 16.6578L20.8707 16.7874L21.0008 16.8744L21.1739 16.961L21.3471 17.0474L21.5205 17.1337L21.6936 17.177L21.9101 17.22L22.0832 17.264H22.343V16.2685L22.2566 16.2251L22.0398 16.1821L21.8667 16.0525L21.737 15.9658L21.6069 15.7925L21.5205 15.6195L21.4335 15.4029L21.3904 15.1869V14.9273H22.343V14.0617H21.4335L21.4771 13.7587L21.5635 13.5427L21.737 13.3691L21.9101 13.1965L22.1266 13.1098H22.343ZM25.2009 13.1531L25.1145 13.0232L25.0711 12.8932V12.5905L25.1145 12.4609L25.1578 12.3309H25.4174L25.6341 12.2879H25.8937L26.1538 12.2446H27.1064V12.5472L27.0631 12.8932L27.0197 13.2395L27.1064 13.0668L27.2362 12.8502L27.3659 12.6772L27.4963 12.5042L27.6691 12.3742L27.8429 12.2879L28.059 12.2012L28.3192 12.1579H28.5784V12.3309L28.5353 12.7638V13.4131L28.3192 13.3691H28.1454L27.9726 13.4131L27.7989 13.4561L27.6691 13.5427L27.5827 13.6291L27.453 13.7587L27.3659 13.932L27.2795 14.148L27.2362 14.3647L27.1928 14.581V14.8839L27.1495 15.1869V17.177H25.937V13.2395L25.6772 13.1965L25.4607 13.1531H25.2009ZM33.8184 17.264H33.4288L33.0823 17.22L32.7788 17.177V16.3987L32.8221 16.1388L33.0389 16.2251L33.2984 16.2685H33.6016L33.8618 16.3115L34.2077 16.2685L34.4678 16.1388L34.5973 16.0091L34.6846 15.7925L34.6407 15.6628L34.5973 15.5332L34.5542 15.4462L34.4678 15.4029L34.3381 15.3166L34.2514 15.2732L34.1213 15.1869L33.9482 15.1439L33.8184 15.0999L33.688 15.0566L33.5152 14.9703L33.3855 14.9273L33.2551 14.8406L33.1253 14.7543L32.9956 14.624L32.8655 14.4943L32.7788 14.3216L32.7357 14.148L32.6924 13.9754V13.5427L32.7357 13.3691L32.7788 13.1965L32.8655 13.0232L32.9525 12.8932L33.0389 12.7638L33.212 12.6339L33.3418 12.5042L33.5586 12.4175L33.7314 12.3309L33.9482 12.2446L34.2077 12.2012L34.4678 12.1579H35.0742L35.3771 12.2012L35.6369 12.2446V13.2395L35.3337 13.1965L35.0306 13.1098H34.7277L34.3811 13.1531L34.1643 13.2395L34.0346 13.4131L33.9915 13.6291V13.7154L34.0346 13.8457L34.1213 13.932L34.2077 13.9754L34.2947 14.0617L34.4245 14.105L34.5542 14.148L34.6846 14.2347L34.8574 14.2783L34.9872 14.3216L35.1609 14.408L35.2904 14.4943L35.4201 14.581L35.5505 14.6673L35.6803 14.7976L35.8101 14.9273L35.8965 15.0566L35.9404 15.2302L35.9835 15.4462V15.8358L35.9404 16.0091L35.8965 16.1821L35.8101 16.3548L35.7236 16.4851L35.5939 16.6578L35.4635 16.7874L35.3337 16.8744L35.1609 16.961L34.9872 17.0474L34.771 17.1337L34.5542 17.22H34.2947L34.0779 17.264H33.8184ZM15.9342 12.2446V12.8502L15.8912 13.1531L16.0209 12.9801L16.1507 12.7638L16.2808 12.6339L16.4539 12.5042L16.627 12.3742L16.8438 12.2879L17.0603 12.2012L17.3198 12.1579H17.8395L18.0559 12.2012L18.2727 12.2879L18.4458 12.3742L18.5756 12.5042L18.7057 12.6339L18.8354 12.7638L18.8788 12.9365L18.9655 13.1098L19.0089 13.3261V17.177H17.7964V14.0184L17.7531 13.7587L17.7097 13.5427L17.5796 13.3691L17.4065 13.2395L17.19 13.1965L16.9736 13.2395L16.8004 13.2828L16.627 13.4131L16.4973 13.5427L16.3672 13.6724L16.2374 13.889L16.1507 14.0617L16.0643 14.3216V14.5377L16.0209 14.7976V17.177H14.7651V13.2395L14.5487 13.1965L14.2888 13.1531H14.029L13.9856 13.0232L13.9423 12.8932L13.8989 12.7202L13.9423 12.5905L13.9856 12.4609L14.029 12.3309H14.2455L14.5053 12.2879H14.7651L14.9816 12.2446H15.9342ZM30.9172 11.6386L30.6571 11.5953L30.4409 11.509L30.3105 11.336L30.1808 11.1194L30.1377 10.8597L30.1808 10.6434L30.3105 10.4271L30.4409 10.2541L30.6571 10.1675L30.9172 10.1241L31.1764 10.1675L31.3935 10.2541L31.5663 10.4271L31.6527 10.6434L31.6967 10.8597L31.6527 11.1194L31.5663 11.336L31.3935 11.509L31.1764 11.5953L30.9172 11.6386ZM31.5663 12.2446H30.5707L30.3105 12.2879H30.051L29.7912 12.3309H29.575L29.4877 12.4609L29.4446 12.5905V12.8932L29.4877 13.0232L29.575 13.1531H29.8342L30.0943 13.1965L30.3105 13.2395V17.177H31.5663V12.2446Z" fill="#0C0C0C"/>
  <path fill-rule="evenodd" clip-rule="evenodd" d="M48.8037 3.15834L48.63 3.02868L48.4138 2.85569L48.154 2.72572L47.9375 2.59605L47.6777 2.46608L47.4176 2.37974L47.158 2.29309L46.8548 2.20675L46.5953 2.16343L46.2921 2.07678H46.0753L45.8158 2.03346H44.8195L44.5166 2.07678L44.2568 2.1201L43.9973 2.16343L43.7371 2.24977L43.4773 2.33642L43.2178 2.42306L42.9577 2.50941L42.6975 2.63938L42.4813 2.76904L42.2215 2.89901L42.0053 3.02868L41.7452 3.15834L41.529 3.33164L41.2689 3.50463L41.0527 3.67792L40.8359 3.89393L40.6628 4.06722L40.4894 4.24021L40.2732 4.45652L40.1428 4.62951L39.9697 4.84613L39.7969 5.06244L39.6665 5.23543L39.5368 5.45174L39.407 5.66806L39.2766 5.88437L39.1902 6.10099L39.0605 6.3173L38.9741 6.53361L38.8437 6.79325L38.7573 7.00956L38.6709 7.2692L38.5845 7.52883L38.5411 7.78847L38.4541 8.0481L38.4107 8.26442L38.3674 8.52405L38.3243 8.78369V9.25964L38.281 9.47595V10.2115L38.3243 10.4712V10.6875L38.3674 10.9471L38.4107 11.2068L38.4541 11.4231L38.5411 11.6827L38.5845 11.9423L38.6709 12.1587L38.7573 12.375L38.8437 12.5913L38.9307 12.8076L39.0174 13.0239L39.1038 13.2402L39.2336 13.4568L39.3206 13.6298L39.4504 13.8464L39.5801 14.0624L39.7099 14.2354L39.84 14.4087L39.9697 14.5817L40.1428 14.755L40.5758 15.274L40.879 15.5772L41.1825 15.8796L41.3553 16.0099L41.529 16.1395L41.7018 16.2692L41.8756 16.3995L42.0484 16.5288L42.2215 16.6585L42.3949 16.7451L42.5681 16.8751L42.7848 16.9618L43.3476 17.2647L43.5204 17.3511L43.7371 17.4377L43.9533 17.5241L44.1704 17.5671L44.3866 17.6537L44.6034 17.6973L44.8195 17.7407L45.0363 17.827L45.2525 17.8703H45.4693L45.6854 17.9134L45.9022 17.9567H46.119L46.3355 18H47.2014L47.4176 17.9567H47.6343L47.8505 17.9134L48.0673 17.8703L48.2835 17.827L48.5005 17.7837L48.7173 17.7407L48.9765 17.6973L49.1933 17.6104L49.4098 17.5671L49.5832 17.4807L49.7994 17.3944L50.0162 17.308L50.2323 17.2208L50.4061 17.0914L50.6223 17.0048L50.7951 16.8751L51.0122 16.7882L51.185 16.6585L51.3584 16.5288L51.5315 16.3995L51.7049 16.2692L51.8781 16.0962L52.0509 15.9665L52.2246 15.7932L52.3974 15.6636L52.5272 15.4903L52.7009 15.3173L53.0041 14.971L53.1339 14.7983L53.2636 14.6247L53.394 14.4521L53.5235 14.2354L53.6102 14.0624L53.7399 13.8464L53.827 13.6298L53.9567 13.4138V13.3699L53.9998 13.2835V12.8939L53.9567 12.8076L53.9134 12.7209V12.6346L53.87 12.548L53.783 12.5049L53.7399 12.4616L53.6966 12.4183L53.6532 12.375L53.5668 12.3316H53.35L53.3067 12.375L53.2636 12.4183L53.2203 12.4616L53.1772 12.5049L53.0475 12.7209L52.9607 12.8939L52.8307 13.1105L52.6576 13.2835L52.3974 13.6731L52.2246 13.8464L52.0942 13.9761L51.9214 14.1488L51.7483 14.3224L51.5749 14.4521L51.4018 14.5817L51.2283 14.755L51.0122 14.8847L50.7951 15.0143L50.6223 15.1007L50.4061 15.231L50.1893 15.3173L49.9725 15.4036L49.7564 15.4903L49.5393 15.5772L49.3231 15.6636L49.1063 15.7069L48.8471 15.7499L48.63 15.8366H48.3708L48.154 15.8796H47.9375L47.7207 15.9229H47.0716L46.8548 15.8796H46.6387L46.4219 15.8366H46.2057L45.9889 15.7932L45.7725 15.7069L45.5557 15.6636L45.3395 15.6203L45.1227 15.5339L44.9066 15.447L44.6898 15.3606L44.4736 15.274L44.2999 15.1876L44.0837 15.1007L43.9103 15.0143L43.7371 14.8847L43.5643 14.755L43.3476 14.6681L43.1738 14.5384L43.001 14.4087L42.8279 14.2791L42.6545 14.1488L42.5247 13.9761L42.3516 13.8464L42.1782 13.6731L42.0484 13.5002L41.8756 13.3269L41.7452 13.1539L41.4423 12.8076L41.3123 12.6346L41.1825 12.375L41.0088 12.1587L40.879 11.9423L40.7926 11.6827L40.6628 11.4231L40.5758 11.1634L40.4894 10.9471L40.403 10.6875L40.3596 10.4278L40.2732 10.1682L40.2299 9.90857L40.1865 9.64894V9.17299L40.1428 8.91335L40.1865 8.65372V8.39408L40.2299 8.13445L40.2732 7.87481L40.3163 7.57216L40.403 7.31252L40.4894 7.00956L40.5758 6.74992L40.6628 6.44696L40.7926 6.18733L40.9223 5.928L41.0958 5.66806L41.2255 5.40873L41.3987 5.19211L41.5721 4.97579L41.7452 4.75948L41.9186 4.54317L42.0917 4.37018L42.3085 4.19689L42.5247 4.0239L42.6111 3.93725L42.7415 3.85091L42.8279 3.80759L42.9577 3.72094L43.0441 3.6346L43.1738 3.59127L43.2611 3.50463L43.3906 3.46161L43.5204 3.37496L43.6074 3.33164L43.7371 3.28831L43.8239 3.20167L43.9973 3.15834L44.0837 3.11532L44.2568 3.072L44.3866 3.02868L44.5166 2.98535L44.6464 2.94203H44.7762L44.9066 2.89901H45.0363L45.1661 2.85569H45.4262L45.2958 2.89901L45.2091 2.94203L45.0797 2.98535L44.993 3.02868L44.8626 3.072L44.7762 3.11532L44.6464 3.20167L44.56 3.2453L44.4736 3.33164L44.3432 3.41828L44.2568 3.46161L44.1271 3.54795L44.0837 3.59127L43.9973 3.67792L43.9533 3.72094L43.9103 3.80759L43.8239 3.85091L43.7805 3.93725L43.7371 3.98057L43.6507 4.06722L43.4773 4.28353L43.434 4.37018L43.3042 4.58649L43.1738 4.80281L43.0441 5.01912L42.9577 5.27875L42.8712 5.49507L42.8279 5.7547L42.7415 6.01434L42.6975 6.23065L42.6545 6.49029V7.39886L42.6975 7.87481V8.09143L42.7415 8.30774L42.8279 8.52405L42.8712 8.78369L42.9577 9L43.0441 9.17299L43.1308 9.3893L43.2178 9.60561L43.3042 9.82193L43.3906 9.99491L43.5204 10.2115L43.6507 10.3845L43.7805 10.6011L43.9103 10.7738L44.2135 11.1201L44.3866 11.2498L44.5166 11.4231L44.6898 11.5961L44.8626 11.726L45.0797 11.899L45.2525 12.0287L45.4693 12.1153L45.6424 12.2453L45.8592 12.375L46.0753 12.4616L46.2921 12.548L46.5083 12.6346L46.7251 12.7209L46.9846 12.8076L47.2447 12.8509L47.5046 12.9373L47.7641 12.9809H48.0242L48.2404 13.0239H49.1503L49.4098 12.9809L49.713 12.9373L49.9725 12.8509L50.2323 12.8076L50.4925 12.7209L50.7087 12.5913L50.9688 12.5049L51.185 12.375L51.4018 12.2453L51.6179 12.1153L51.8347 11.9857L52.0078 11.8124L52.268 11.6394L52.4408 11.4231L52.6576 11.2068L52.8307 10.9471L53.0041 10.7308L53.1339 10.5145L53.2636 10.2549L53.394 9.99491L53.4804 9.7786L53.5668 9.51927L53.6532 9.25964L53.6966 9L53.783 8.65372L53.827 8.30774V7.22587L53.783 6.96624V6.7066L53.6966 6.23065L53.5668 5.7547L53.5235 5.53839L53.4371 5.32208L53.35 5.06244L53.2636 4.84613L53.1772 4.58649L53.0905 4.37018L52.9607 4.15387L52.8307 3.93725L52.744 3.72094L52.6142 3.50463L52.4841 3.33164L52.311 3.11532L52.1813 2.89901L52.0509 2.72572L51.8781 2.55273L51.7483 2.37974L51.5749 2.16343L51.4018 1.99044L51.2283 1.81714L51.0552 1.64416L50.839 1.51418L50.6656 1.3412L50.4925 1.16821L50.2757 1.03824L49.8428 0.735585L49.6266 0.605613L49.4098 0.475948H49.3664L49.3231 0.432625H49.0633L49.0199 0.475948L48.9765 0.518965V0.648936L49.0199 0.69226V0.735585L49.0633 0.778601V0.821925L49.1063 0.865248H49.1503L49.1933 0.908573L49.2367 0.951896L49.4529 1.08156L49.6696 1.21122L49.8858 1.3412L50.1029 1.51418L50.3191 1.64416L50.4925 1.81714L50.7087 1.99044L50.8824 2.16343L51.0552 2.33642L51.2283 2.50941L51.4018 2.6827L51.5315 2.85569L51.7049 3.072L51.8347 3.28831L51.9645 3.46161L52.0942 3.67792L52.2246 3.89393L52.3544 4.11024L52.5712 4.54317L52.6576 4.80281L52.744 5.01912L52.8307 5.23543L52.8737 5.49507L52.9607 5.71138L53.0041 5.928L53.0475 6.18733L53.0905 6.40395V6.66358L53.1339 6.8799V7.35554L53.0905 7.61517V7.91813L53.0475 8.17777L52.9607 8.48073L52.8737 8.78369L52.7873 9.04332L52.6576 9.30265L52.5272 9.5626L52.3544 9.82193L52.1813 10.0819L51.9645 10.2982L51.7049 10.5145L51.4451 10.7308L51.185 10.9038L50.8824 11.0768L50.5789 11.2498L50.3191 11.3367L50.0595 11.3797L49.7994 11.4661L49.5393 11.5097L49.28 11.553H48.3708L48.0673 11.5097L47.7641 11.4231L47.4615 11.3367L47.158 11.2498L46.9846 11.2068L46.8548 11.1201L46.6817 11.0768L46.5516 10.9904L46.3785 10.9038L46.2488 10.8175L46.119 10.7308L45.9456 10.6011L45.8158 10.5145L45.5557 10.2982L45.4693 10.1682L45.7288 10.2982L45.9456 10.3845L46.2057 10.4712L46.5083 10.5575L46.7684 10.6011L47.0283 10.6442H47.8075L48.0673 10.6011H48.3274L48.5436 10.5145L48.8471 10.4278L49.1063 10.3412L49.3231 10.2549L49.5832 10.1249L49.8858 9.9519L50.1459 9.7786L50.4061 9.5626L50.6223 9.34628L50.839 9.12967L51.0122 8.87003L51.185 8.61039L51.3584 8.35076L51.4882 8.09143L51.5749 7.83179L51.6613 7.52883L51.7483 7.2692L51.7917 7.00956L51.8347 6.7066V6.18733L51.7917 5.928L51.7483 5.62504L51.7049 5.3651L51.6613 5.10577L51.5749 4.84613L51.4882 4.62951L51.4018 4.37018L51.272 4.15387L51.185 3.93725L51.0552 3.72094L50.9254 3.50463L50.7951 3.28831L50.6656 3.11532L50.4925 2.89901L50.1893 2.55273L50.0595 2.37974L49.8858 2.20675L49.713 2.03346L49.4962 1.86047L49.3231 1.7308L49.1503 1.55751L48.9335 1.42784L48.7173 1.29787L48.5005 1.16821L48.3274 1.03824L48.0673 0.908573L47.8505 0.778601L47.6343 0.69226L47.4176 0.605613L47.2014 0.518965L46.9846 0.432625L46.7684 0.345976L46.5083 0.302653L46.2921 0.216312L46.032 0.172988L45.8158 0.129665L45.5557 0.08634H45.3395L45.1227 0.0433235H44.8626L44.6464 0H43.5204L43.3042 0.0433235H43.0874L42.8279 0.08634L42.6111 0.129665H42.3949L42.1782 0.216312H41.962L41.7018 0.302653L41.4857 0.345976L41.2689 0.432625L41.0527 0.475948L40.8359 0.562288L40.5758 0.648936L40.3596 0.735585L40.1428 0.821925L39.9267 0.908573L39.7099 0.994913L39.4937 1.12488L39.3206 1.21122L39.1038 1.3412L38.9307 1.42784L38.7573 1.55751L38.5411 1.68748L38.3674 1.81714L38.1946 1.94712L38.0208 2.07678L37.8047 2.20675L37.6319 2.33642L37.4581 2.50941L37.2853 2.63938L36.9821 2.98535L36.809 3.11532L36.6356 3.28831L36.5058 3.46161L36.3321 3.6346L36.2023 3.80759L36.0729 3.98057L35.9431 4.15387L35.5965 4.67314L35.4662 4.88945L35.3798 5.06244L35.25 5.23543L35.1636 5.45174L35.0769 5.62504L34.9465 5.84135L34.8601 6.05766L34.7737 6.27398L34.6873 6.49029L34.6433 6.7066L34.5569 6.92291L34.5136 7.13922L34.4271 7.35554L34.3838 7.57216V7.87481L34.4271 7.96146L34.5136 8.0481L34.6 8.09143L34.6873 8.17777L34.7737 8.22109L34.9035 8.26442H35.3364L35.5098 8.22109L35.6396 8.17777L35.7694 8.13445L35.9431 8.09143L36.0295 8.00478L36.1593 7.96146L36.2457 7.87481L36.3321 7.78847L36.4194 7.70182L36.5058 7.57216L36.5489 7.48551V7.39886L36.5922 7.13922L36.6356 6.92291L36.722 6.7066L36.765 6.49029L36.809 6.27398L36.8954 6.05766L36.9821 5.84135L37.0685 5.62504L37.1549 5.40873L37.2419 5.23543L37.3717 5.01912L37.4581 4.84613L37.5879 4.62951L37.6749 4.45652L37.8047 4.28353L37.9344 4.11024L38.0648 3.93725L38.1946 3.76426L38.4978 3.41828L38.6709 3.2453L38.8437 3.072L39.0174 2.89901L39.1472 2.76904L39.364 2.59605L39.5368 2.46608L39.7099 2.33642L40.0564 2.07678L40.2732 1.94712L40.446 1.86047L40.879 1.60083L41.0958 1.51418L41.3123 1.42784L41.529 1.29787L41.7452 1.25486L41.962 1.16821L42.1782 1.08156L42.3949 1.03824L42.6545 0.951896L42.8712 0.908573L43.0874 0.865248L43.3042 0.821925L43.5643 0.778601H43.7805L43.9973 0.735585H44.2568L44.4736 0.69226H44.7331L44.9499 0.735585H45.4262L45.6424 0.778601L45.9456 0.821925L46.2057 0.865248L46.4649 0.908573L46.7251 0.994913L46.9846 1.08156L47.2447 1.16821L47.4615 1.25486L47.6777 1.3412L47.9375 1.47117L48.154 1.60083L48.3274 1.7308L48.5436 1.86047L48.7604 1.99044L48.9335 2.1201L49.1503 2.29309L49.3231 2.46608L49.4962 2.63938L49.6696 2.81237L49.7994 2.98535L49.9725 3.15834L50.1029 3.33164L50.2323 3.54795L50.3621 3.76426L50.4925 3.98057L50.5789 4.19689L50.7087 4.4132L50.7951 4.62951L50.8824 4.88945L50.9254 5.10577L50.9688 5.32208L51.0122 5.53839L51.0552 5.7547V6.18733L51.0122 6.40395V6.62026L50.9254 6.83657L50.8824 7.05288L50.7951 7.2692L50.7087 7.48551L50.5789 7.70182L50.4491 7.91813L50.3191 8.09143L50.1459 8.26442L49.9725 8.43741L49.7994 8.61039L49.5832 8.78369L49.3664 8.91335L49.1063 9L48.8471 9.12967L48.5869 9.21631L48.3274 9.25964L48.0673 9.30265L47.8505 9.34628H47.3742L47.158 9.30265L46.8982 9.25964L46.6817 9.21631L46.4219 9.12967L46.2057 9.04332L45.9889 8.91335L45.7725 8.78369L45.5557 8.61039L45.3395 8.48073L45.1227 8.26442L44.9499 8.09143L44.7762 7.91813L44.6464 7.70182L44.4736 7.48551L44.3866 7.2692L44.2999 7.05288L44.2135 6.79325L44.1704 6.53361L44.1271 6.23065V5.79803L44.1704 5.58171L44.2135 5.45174L44.2568 5.32208L44.2999 5.23543L44.3866 5.14909L44.4302 5.01912L44.5166 4.84613L44.6464 4.62951L44.8195 4.4132L44.993 4.24021L45.1661 4.06722L45.3395 3.93725L45.599 3.76426L45.8592 3.67792L46.119 3.54795L46.4219 3.50463L46.6817 3.41828H47.5479L47.8505 3.50463L48.1971 3.59127L48.5005 3.76426H48.5436L48.5869 3.80759H48.8471L48.8901 3.76426H48.9335L48.9765 3.72094V3.67792L49.0199 3.6346V3.41828L48.9765 3.37496V3.33164L48.9335 3.28831L48.8901 3.2453L48.8471 3.20167L48.8037 3.15834Z" fill="#121212"/>
</svg>